<?xml version="1.0" encoding="iso-8859-1"?>
<!-- Generator: Adobe Illustrator 19.0.0, SVG Export Plug-In . SVG Version: 6.00 Build 0)  -->
<svg version="1.1" id="Layer_1" xmlns="http://www.w3.org/2000/svg" xmlns:xlink="http://www.w3.org/1999/xlink" x="0px" y="0px"
	 viewBox="0 0 512.002 512.002" style="enable-background:new 0 0 512.002 512.002;" xml:space="preserve">
<path style="fill:#3494D0;" d="M435.408,215.3V88.165c0-48.36-39.204-87.564-87.564-87.564l0,0
	c-48.36,0-87.564,39.204-87.564,87.564V215.3h36.239V86.223c0-28.346,22.979-51.325,51.325-51.325l0,0
	c28.346,0,51.325,22.979,51.325,51.325V215.3H435.408z"/>
<path style="fill:#74DBC9;" d="M486.182,511.395H209.505c-14.26,0-25.82-11.56-25.82-25.82V241.12c0-14.26,11.56-25.82,25.82-25.82
	h276.677c14.26,0,25.82,11.56,25.82,25.82v244.454C512.002,499.835,500.442,511.395,486.182,511.395z"/>
<path style="fill:#6DCCBA;" d="M512,241.123v244.454c0,14.259-11.554,25.823-25.823,25.823h-51.098
	c14.259,0,25.812-11.564,25.812-25.823V241.123c0-14.259-11.554-25.823-25.812-25.823h51.098C500.447,215.3,512,226.865,512,241.123
	z"/>
<path style="fill:#FDDD85;" d="M88.802,267.988c-50.65,0-91.396,42.405-88.673,93.65c2.43,45.716,39.892,82.383,85.647,83.904
	c43.844,1.457,80.861-28.881,89.778-69.724h40.117c1.731,0,3.345-0.87,4.297-2.316l7.209-10.95c1.873-2.845,5.943-3.117,8.178-0.548
	l10.478,12.045c0.977,1.123,2.393,1.768,3.882,1.768H273.7c1.634,0,3.171-0.777,4.141-2.092l7.742-10.503
	c1.933-2.623,5.787-2.811,7.966-0.388l10.144,11.279c0.976,1.085,2.366,1.704,3.825,1.704h40.05v-38.056H175.554
	C166.842,297.863,131.314,267.988,88.802,267.988z"/>
<circle style="fill:#FDD042;" cx="89.27" cy="356.789" r="70.896"/>
<circle style="fill:#FFFFFF;" cx="54.03" cy="356.789" r="19.436"/>
<path style="fill:#3494D0;" d="M348.237,416.705c-4.268,0-7.727-3.459-7.727-7.727V299.267c0-4.267,3.459-7.727,7.727-7.727
	c4.268,0,7.727,3.459,7.727,7.727v109.712C355.963,413.246,352.505,416.705,348.237,416.705z"/>
<g>
</g>
<g>
</g>
<g>
</g>
<g>
</g>
<g>
</g>
<g>
</g>
<g>
</g>
<g>
</g>
<g>
</g>
<g>
</g>
<g>
</g>
<g>
</g>
<g>
</g>
<g>
</g>
<g>
</g>
</svg>
